<?xml version="1.0" encoding="UTF-8"?>
<svg xmlns="http://www.w3.org/2000/svg" width="800" height="300" viewBox="0 0 800 300">
<style>
    .line { stroke: #3498db; stroke-width: 2; fill: none; }
    .capacity { stroke: #e74c3c; stroke-width: 1; stroke-dasharray: 5,5; }
    .axis { stroke: #2c3e50; stroke-width: 1; }
    .label { font-family: Arial; font-size: 12px; fill: #2c3e50; }
    .title { font-family: Arial; font-size: 14px; fill: #2c3e50; font-weight: bold; }
</style>
<rect width="100%" height="100%" fill="#ecf0f1"/>
<text x="50" y="25" class="title">Load Profile - Capacity: 45</text>
<line x1="50" y1="150" x2="750" y2="150" class="axis"/>
<line x1="50" y1="50" x2="50" y2="250" class="axis"/>
<line x1="50" y1="50" x2="750" y2="50" class="capacity"/>
<line x1="50" y1="250" x2="750" y2="250" class="capacity"/>
<text x="755" y="55" class="label">+45</text>
<text x="755" y="255" class="label">-45</text>
<path d="M 50.00 141.11 L 56.86 132.22 L 63.73 118.89 L 70.59 101.11 L 77.45 116.67 L 84.31 101.11 L 91.18 118.89 L 98.04 98.89 L 104.90 114.44 L 111.76 114.44 L 118.63 103.33 L 125.49 121.11 L 132.35 116.67 L 139.22 136.67 L 146.08 123.33 L 152.94 118.89 L 159.80 127.78 L 166.67 136.67 L 173.53 121.11 L 180.39 123.33 L 187.25 121.11 L 194.12 101.11 L 200.98 94.44 L 207.84 74.44 L 214.71 56.67 L 221.57 63.33 L 228.43 61.11 L 235.29 72.22 L 242.16 81.11 L 249.02 87.78 L 255.88 98.89 L 262.75 83.33 L 269.61 85.56 L 276.47 107.78 L 283.33 98.89 L 290.20 96.67 L 297.06 101.11 L 303.92 83.33 L 310.78 67.78 L 317.65 70.00 L 324.51 76.67 L 331.37 94.44 L 338.24 101.11 L 345.10 112.22 L 351.96 101.11 L 358.82 110.00 L 365.69 116.67 L 372.55 132.22 L 379.41 134.44 L 386.27 145.56 L 393.14 125.56 L 400.00 121.11 L 406.86 123.33 L 413.73 125.56 L 420.59 123.33 L 427.45 123.33 L 434.31 136.67 L 441.18 136.67 L 448.04 127.78 L 454.90 110.00 L 461.76 130.00 L 468.63 130.00 L 475.49 127.78 L 482.35 110.00 L 489.22 114.44 L 496.08 112.22 L 502.94 107.78 L 509.80 98.89 L 516.67 81.11 L 523.53 83.33 L 530.39 65.56 L 537.25 65.56 L 544.12 56.67 L 550.98 67.78 L 557.84 65.56 L 564.71 74.44 L 571.57 54.44 L 578.43 54.44 L 585.29 54.44 L 592.16 56.67 L 599.02 65.56 L 605.88 65.56 L 612.75 72.22 L 619.61 81.11 L 626.47 83.33 L 633.33 70.00 L 640.20 85.56 L 647.06 107.78 L 653.92 96.67 L 660.78 87.78 L 667.65 105.56 L 674.51 94.44 L 681.37 114.44 L 688.24 127.78 L 695.10 116.67 L 701.96 134.44 L 708.82 141.11 L 715.69 141.11 L 722.55 147.78 L 729.41 150.00 L 736.27 150.00 L 743.14 150.00" class="line"/>
<circle cx="50.00" cy="141.11" r="4" fill="#3498db"/>
<circle cx="56.86" cy="132.22" r="4" fill="#3498db"/>
<circle cx="63.73" cy="118.89" r="4" fill="#3498db"/>
<circle cx="70.59" cy="101.11" r="4" fill="#3498db"/>
<circle cx="77.45" cy="116.67" r="4" fill="#3498db"/>
<circle cx="84.31" cy="101.11" r="4" fill="#3498db"/>
<circle cx="91.18" cy="118.89" r="4" fill="#3498db"/>
<circle cx="98.04" cy="98.89" r="4" fill="#3498db"/>
<circle cx="104.90" cy="114.44" r="4" fill="#3498db"/>
<circle cx="111.76" cy="114.44" r="4" fill="#3498db"/>
<circle cx="118.63" cy="103.33" r="4" fill="#3498db"/>
<circle cx="125.49" cy="121.11" r="4" fill="#3498db"/>
<circle cx="132.35" cy="116.67" r="4" fill="#3498db"/>
<circle cx="139.22" cy="136.67" r="4" fill="#3498db"/>
<circle cx="146.08" cy="123.33" r="4" fill="#3498db"/>
<circle cx="152.94" cy="118.89" r="4" fill="#3498db"/>
<circle cx="159.80" cy="127.78" r="4" fill="#3498db"/>
<circle cx="166.67" cy="136.67" r="4" fill="#3498db"/>
<circle cx="173.53" cy="121.11" r="4" fill="#3498db"/>
<circle cx="180.39" cy="123.33" r="4" fill="#3498db"/>
<circle cx="187.25" cy="121.11" r="4" fill="#3498db"/>
<circle cx="194.12" cy="101.11" r="4" fill="#3498db"/>
<circle cx="200.98" cy="94.44" r="4" fill="#3498db"/>
<circle cx="207.84" cy="74.44" r="4" fill="#3498db"/>
<circle cx="214.71" cy="56.67" r="4" fill="#3498db"/>
<circle cx="221.57" cy="63.33" r="4" fill="#3498db"/>
<circle cx="228.43" cy="61.11" r="4" fill="#3498db"/>
<circle cx="235.29" cy="72.22" r="4" fill="#3498db"/>
<circle cx="242.16" cy="81.11" r="4" fill="#3498db"/>
<circle cx="249.02" cy="87.78" r="4" fill="#3498db"/>
<circle cx="255.88" cy="98.89" r="4" fill="#3498db"/>
<circle cx="262.75" cy="83.33" r="4" fill="#3498db"/>
<circle cx="269.61" cy="85.56" r="4" fill="#3498db"/>
<circle cx="276.47" cy="107.78" r="4" fill="#3498db"/>
<circle cx="283.33" cy="98.89" r="4" fill="#3498db"/>
<circle cx="290.20" cy="96.67" r="4" fill="#3498db"/>
<circle cx="297.06" cy="101.11" r="4" fill="#3498db"/>
<circle cx="303.92" cy="83.33" r="4" fill="#3498db"/>
<circle cx="310.78" cy="67.78" r="4" fill="#3498db"/>
<circle cx="317.65" cy="70.00" r="4" fill="#3498db"/>
<circle cx="324.51" cy="76.67" r="4" fill="#3498db"/>
<circle cx="331.37" cy="94.44" r="4" fill="#3498db"/>
<circle cx="338.24" cy="101.11" r="4" fill="#3498db"/>
<circle cx="345.10" cy="112.22" r="4" fill="#3498db"/>
<circle cx="351.96" cy="101.11" r="4" fill="#3498db"/>
<circle cx="358.82" cy="110.00" r="4" fill="#3498db"/>
<circle cx="365.69" cy="116.67" r="4" fill="#3498db"/>
<circle cx="372.55" cy="132.22" r="4" fill="#3498db"/>
<circle cx="379.41" cy="134.44" r="4" fill="#3498db"/>
<circle cx="386.27" cy="145.56" r="4" fill="#3498db"/>
<circle cx="393.14" cy="125.56" r="4" fill="#3498db"/>
<circle cx="400.00" cy="121.11" r="4" fill="#3498db"/>
<circle cx="406.86" cy="123.33" r="4" fill="#3498db"/>
<circle cx="413.73" cy="125.56" r="4" fill="#3498db"/>
<circle cx="420.59" cy="123.33" r="4" fill="#3498db"/>
<circle cx="427.45" cy="123.33" r="4" fill="#3498db"/>
<circle cx="434.31" cy="136.67" r="4" fill="#3498db"/>
<circle cx="441.18" cy="136.67" r="4" fill="#3498db"/>
<circle cx="448.04" cy="127.78" r="4" fill="#3498db"/>
<circle cx="454.90" cy="110.00" r="4" fill="#3498db"/>
<circle cx="461.76" cy="130.00" r="4" fill="#3498db"/>
<circle cx="468.63" cy="130.00" r="4" fill="#3498db"/>
<circle cx="475.49" cy="127.78" r="4" fill="#3498db"/>
<circle cx="482.35" cy="110.00" r="4" fill="#3498db"/>
<circle cx="489.22" cy="114.44" r="4" fill="#3498db"/>
<circle cx="496.08" cy="112.22" r="4" fill="#3498db"/>
<circle cx="502.94" cy="107.78" r="4" fill="#3498db"/>
<circle cx="509.80" cy="98.89" r="4" fill="#3498db"/>
<circle cx="516.67" cy="81.11" r="4" fill="#3498db"/>
<circle cx="523.53" cy="83.33" r="4" fill="#3498db"/>
<circle cx="530.39" cy="65.56" r="4" fill="#3498db"/>
<circle cx="537.25" cy="65.56" r="4" fill="#3498db"/>
<circle cx="544.12" cy="56.67" r="4" fill="#3498db"/>
<circle cx="550.98" cy="67.78" r="4" fill="#3498db"/>
<circle cx="557.84" cy="65.56" r="4" fill="#3498db"/>
<circle cx="564.71" cy="74.44" r="4" fill="#3498db"/>
<circle cx="571.57" cy="54.44" r="4" fill="#3498db"/>
<circle cx="578.43" cy="54.44" r="4" fill="#3498db"/>
<circle cx="585.29" cy="54.44" r="4" fill="#3498db"/>
<circle cx="592.16" cy="56.67" r="4" fill="#3498db"/>
<circle cx="599.02" cy="65.56" r="4" fill="#3498db"/>
<circle cx="605.88" cy="65.56" r="4" fill="#3498db"/>
<circle cx="612.75" cy="72.22" r="4" fill="#3498db"/>
<circle cx="619.61" cy="81.11" r="4" fill="#3498db"/>
<circle cx="626.47" cy="83.33" r="4" fill="#3498db"/>
<circle cx="633.33" cy="70.00" r="4" fill="#3498db"/>
<circle cx="640.20" cy="85.56" r="4" fill="#3498db"/>
<circle cx="647.06" cy="107.78" r="4" fill="#3498db"/>
<circle cx="653.92" cy="96.67" r="4" fill="#3498db"/>
<circle cx="660.78" cy="87.78" r="4" fill="#3498db"/>
<circle cx="667.65" cy="105.56" r="4" fill="#3498db"/>
<circle cx="674.51" cy="94.44" r="4" fill="#3498db"/>
<circle cx="681.37" cy="114.44" r="4" fill="#3498db"/>
<circle cx="688.24" cy="127.78" r="4" fill="#3498db"/>
<circle cx="695.10" cy="116.67" r="4" fill="#3498db"/>
<circle cx="701.96" cy="134.44" r="4" fill="#3498db"/>
<circle cx="708.82" cy="141.11" r="4" fill="#3498db"/>
<circle cx="715.69" cy="141.11" r="4" fill="#3498db"/>
<circle cx="722.55" cy="147.78" r="4" fill="#3498db"/>
<circle cx="729.41" cy="150.00" r="4" fill="#3498db"/>
<circle cx="736.27" cy="150.00" r="4" fill="#3498db"/>
<circle cx="743.14" cy="150.00" r="4" fill="#3498db"/>
</svg>