<?xml version="1.0" encoding="UTF-8"?>
<svg xmlns="http://www.w3.org/2000/svg" width="800" height="800" viewBox="0 0 800 800">
<style>
    .node { fill: #3498db; stroke: #2c3e50; stroke-width: 2; }
    .depot { fill: #e74c3c; stroke: #c0392b; stroke-width: 2; }
    .pickup { fill: #2ecc71; stroke: #27ae60; stroke-width: 2; }
    .delivery { fill: #f39c12; stroke: #d68910; stroke-width: 2; }
    .edge { stroke: #34495e; stroke-width: 2; fill: none; }
    .label { font-family: Arial; font-size: 10px; fill: #2c3e50; }
    .title { font-family: Arial; font-size: 14px; fill: #2c3e50; font-weight: bold; }
</style>
<rect width="100%" height="100%" fill="#ecf0f1"/>
<text x="50" y="25" class="title">Instance: n20mosA.tsp, 20 nodes, semilla 0 | Cost: 3885.93 | Feasible: true</text>
<line x1="341.24" y1="413.50" x2="407.66" y2="452.19" class="edge" marker-end="url(#arrow)"/>
<line x1="407.66" y1="452.19" x2="423.72" y2="449.27" class="edge" marker-end="url(#arrow)"/>
<line x1="423.72" y1="449.27" x2="501.82" y2="750.00" class="edge" marker-end="url(#arrow)"/>
<line x1="501.82" y1="750.00" x2="295.99" y2="604.01" class="edge" marker-end="url(#arrow)"/>
<line x1="295.99" y1="604.01" x2="182.12" y2="674.09" class="edge" marker-end="url(#arrow)"/>
<line x1="182.12" y1="674.09" x2="185.04" y2="511.31" class="edge" marker-end="url(#arrow)"/>
<line x1="185.04" y1="511.31" x2="212.77" y2="444.16" class="edge" marker-end="url(#arrow)"/>
<line x1="212.77" y1="444.16" x2="179.93" y2="248.54" class="edge" marker-end="url(#arrow)"/>
<line x1="179.93" y1="248.54" x2="50.00" y2="155.11" class="edge" marker-end="url(#arrow)"/>
<line x1="50.00" y1="155.11" x2="152.19" y2="134.67" class="edge" marker-end="url(#arrow)"/>
<line x1="152.19" y1="134.67" x2="150.00" y2="115.69" class="edge" marker-end="url(#arrow)"/>
<line x1="150.00" y1="115.69" x2="185.04" y2="87.96" class="edge" marker-end="url(#arrow)"/>
<line x1="185.04" y1="87.96" x2="405.47" y2="164.60" class="edge" marker-end="url(#arrow)"/>
<line x1="405.47" y1="164.60" x2="473.36" y2="50.00" class="edge" marker-end="url(#arrow)"/>
<line x1="473.36" y1="50.00" x2="627.37" y2="65.33" class="edge" marker-end="url(#arrow)"/>
<line x1="627.37" y1="65.33" x2="558.76" y2="153.65" class="edge" marker-end="url(#arrow)"/>
<line x1="558.76" y1="153.65" x2="638.32" y2="299.64" class="edge" marker-end="url(#arrow)"/>
<line x1="638.32" y1="299.64" x2="649.27" y2="385.77" class="edge" marker-end="url(#arrow)"/>
<line x1="649.27" y1="385.77" x2="427.37" y2="331.75" class="edge" marker-end="url(#arrow)"/>
<line x1="427.37" y1="331.75" x2="341.24" y2="413.50" class="edge" marker-end="url(#arrow)"/>
<line x1="341.24" y1="413.50" x2="341.24" y2="413.50" class="edge" marker-end="url(#arrow)"/>
<defs>
<marker id="arrow" markerWidth="10" markerHeight="10" refX="9" refY="3" orient="auto" markerUnits="strokeWidth">
<path d="M0,0 L0,6 L9,3 z" fill="#34495e"/>
</marker>
</defs>
<circle cx="341.24" cy="413.50" r="8" class="depot"/>
<text x="341.24" y="402.50" class="label" text-anchor="middle">0</text>
<circle cx="501.82" cy="750.00" r="8" class="pickup"/>
<text x="501.82" y="739.00" class="label" text-anchor="middle">1</text>
<circle cx="295.99" cy="604.01" r="8" class="pickup"/>
<text x="295.99" y="593.01" class="label" text-anchor="middle">2</text>
<circle cx="558.76" cy="153.65" r="8" class="node"/>
<text x="558.76" y="142.65" class="label" text-anchor="middle">3</text>
<circle cx="185.04" cy="511.31" r="8" class="delivery"/>
<text x="185.04" y="500.31" class="label" text-anchor="middle">4</text>
<circle cx="423.72" cy="449.27" r="8" class="delivery"/>
<text x="423.72" y="438.27" class="label" text-anchor="middle">5</text>
<circle cx="50.00" cy="155.11" r="8" class="delivery"/>
<text x="50.00" y="144.11" class="label" text-anchor="middle">6</text>
<circle cx="182.12" cy="674.09" r="8" class="pickup"/>
<text x="182.12" y="663.09" class="label" text-anchor="middle">7</text>
<circle cx="649.27" cy="385.77" r="8" class="node"/>
<text x="649.27" y="374.77" class="label" text-anchor="middle">8</text>
<circle cx="185.04" cy="87.96" r="8" class="node"/>
<text x="185.04" y="76.96" class="label" text-anchor="middle">9</text>
<circle cx="473.36" cy="50.00" r="8" class="delivery"/>
<text x="473.36" y="39.00" class="label" text-anchor="middle">10</text>
<circle cx="627.37" cy="65.33" r="8" class="delivery"/>
<text x="627.37" y="54.33" class="label" text-anchor="middle">11</text>
<circle cx="638.32" cy="299.64" r="8" class="pickup"/>
<text x="638.32" y="288.64" class="label" text-anchor="middle">12</text>
<circle cx="212.77" cy="444.16" r="8" class="pickup"/>
<text x="212.77" y="433.16" class="label" text-anchor="middle">13</text>
<circle cx="152.19" cy="134.67" r="8" class="delivery"/>
<text x="152.19" y="123.67" class="label" text-anchor="middle">14</text>
<circle cx="179.93" cy="248.54" r="8" class="pickup"/>
<text x="179.93" y="237.54" class="label" text-anchor="middle">15</text>
<circle cx="407.66" cy="452.19" r="8" class="pickup"/>
<text x="407.66" y="441.19" class="label" text-anchor="middle">16</text>
<circle cx="405.47" cy="164.60" r="8" class="delivery"/>
<text x="405.47" y="153.60" class="label" text-anchor="middle">17</text>
<circle cx="150.00" cy="115.69" r="8" class="pickup"/>
<text x="150.00" y="104.69" class="label" text-anchor="middle">18</text>
<circle cx="427.37" cy="331.75" r="8" class="delivery"/>
<text x="427.37" y="320.75" class="label" text-anchor="middle">19</text>

<rect x="50" y="770" width="15" height="15" class="depot"/>
<text x="70" y="782" class="label">Depot</text>
<rect x="130" y="770" width="15" height="15" class="pickup"/>
<text x="150" y="782" class="label">Pickup</text>
<rect x="210" y="770" width="15" height="15" class="delivery"/>
<text x="230" y="782" class="label">Delivery</text>
</svg>