<?xml version="1.0" encoding="UTF-8"?>
<svg xmlns="http://www.w3.org/2000/svg" width="800" height="800" viewBox="0 0 800 800">
<style>
    .node { fill: #3498db; stroke: #2c3e50; stroke-width: 2; }
    .depot { fill: #e74c3c; stroke: #c0392b; stroke-width: 2; }
    .pickup { fill: #2ecc71; stroke: #27ae60; stroke-width: 2; }
    .delivery { fill: #f39c12; stroke: #d68910; stroke-width: 2; }
    .edge { stroke: #34495e; stroke-width: 2; fill: none; }
    .label { font-family: Arial; font-size: 10px; fill: #2c3e50; }
    .title { font-family: Arial; font-size: 14px; fill: #2c3e50; font-weight: bold; }
</style>
<rect width="100%" height="100%" fill="#ecf0f1"/>
<text x="50" y="25" class="title">Instance: n100q45A.tsp, 100 nodes, semilla 0 | Cost: 9161.19 | Feasible: true</text>
<line x1="397.89" y1="400.00" x2="452.71" y2="382.43" class="edge" marker-end="url(#arrow)"/>
<line x1="452.71" y1="382.43" x2="331.12" y2="308.63" class="edge" marker-end="url(#arrow)"/>
<line x1="331.12" y1="308.63" x2="331.12" y2="292.47" class="edge" marker-end="url(#arrow)"/>
<line x1="331.12" y1="292.47" x2="323.39" y2="376.10" class="edge" marker-end="url(#arrow)"/>
<line x1="323.39" y1="376.10" x2="352.91" y2="342.37" class="edge" marker-end="url(#arrow)"/>
<line x1="352.91" y1="342.37" x2="226.41" y2="478.01" class="edge" marker-end="url(#arrow)"/>
<line x1="226.41" y1="478.01" x2="247.49" y2="494.18" class="edge" marker-end="url(#arrow)"/>
<line x1="247.49" y1="494.18" x2="232.73" y2="518.07" class="edge" marker-end="url(#arrow)"/>
<line x1="232.73" y1="518.07" x2="170.88" y2="519.48" class="edge" marker-end="url(#arrow)"/>
<line x1="170.88" y1="519.48" x2="140.66" y2="496.99" class="edge" marker-end="url(#arrow)"/>
<line x1="140.66" y1="496.99" x2="156.83" y2="576.41" class="edge" marker-end="url(#arrow)"/>
<line x1="156.83" y1="576.41" x2="177.91" y2="582.73" class="edge" marker-end="url(#arrow)"/>
<line x1="177.91" y1="582.73" x2="164.56" y2="607.33" class="edge" marker-end="url(#arrow)"/>
<line x1="164.56" y1="607.33" x2="125.20" y2="601.71" class="edge" marker-end="url(#arrow)"/>
<line x1="125.20" y1="601.71" x2="103.41" y2="717.67" class="edge" marker-end="url(#arrow)"/>
<line x1="103.41" y1="717.67" x2="142.77" y2="670.58" class="edge" marker-end="url(#arrow)"/>
<line x1="142.77" y1="670.58" x2="175.80" y2="671.29" class="edge" marker-end="url(#arrow)"/>
<line x1="175.80" y1="671.29" x2="196.89" y2="682.53" class="edge" marker-end="url(#arrow)"/>
<line x1="196.89" y1="682.53" x2="213.05" y2="633.33" class="edge" marker-end="url(#arrow)"/>
<line x1="213.05" y1="633.33" x2="244.68" y2="650.90" class="edge" marker-end="url(#arrow)"/>
<line x1="244.68" y1="650.90" x2="243.27" y2="692.37" class="edge" marker-end="url(#arrow)"/>
<line x1="243.27" y1="692.37" x2="282.63" y2="734.54" class="edge" marker-end="url(#arrow)"/>
<line x1="282.63" y1="734.54" x2="354.32" y2="583.43" class="edge" marker-end="url(#arrow)"/>
<line x1="354.32" y1="583.43" x2="377.51" y2="572.19" class="edge" marker-end="url(#arrow)"/>
<line x1="377.51" y1="572.19" x2="402.11" y2="554.62" class="edge" marker-end="url(#arrow)"/>
<line x1="402.11" y1="554.62" x2="494.18" y2="575.70" class="edge" marker-end="url(#arrow)"/>
<line x1="494.18" y1="575.70" x2="434.44" y2="600.30" class="edge" marker-end="url(#arrow)"/>
<line x1="434.44" y1="600.30" x2="420.38" y2="718.37" class="edge" marker-end="url(#arrow)"/>
<line x1="420.38" y1="718.37" x2="450.60" y2="736.65" class="edge" marker-end="url(#arrow)"/>
<line x1="450.60" y1="736.65" x2="482.93" y2="715.56" class="edge" marker-end="url(#arrow)"/>
<line x1="482.93" y1="715.56" x2="552.51" y2="724.00" class="edge" marker-end="url(#arrow)"/>
<line x1="552.51" y1="724.00" x2="572.19" y2="667.07" class="edge" marker-end="url(#arrow)"/>
<line x1="572.19" y1="667.07" x2="608.73" y2="740.86" class="edge" marker-end="url(#arrow)"/>
<line x1="608.73" y1="740.86" x2="698.69" y2="750.00" class="edge" marker-end="url(#arrow)"/>
<line x1="698.69" y1="750.00" x2="731.73" y2="737.35" class="edge" marker-end="url(#arrow)"/>
<line x1="731.73" y1="737.35" x2="670.58" y2="593.98" class="edge" marker-end="url(#arrow)"/>
<line x1="670.58" y1="593.98" x2="709.24" y2="567.97" class="edge" marker-end="url(#arrow)"/>
<line x1="709.24" y1="567.97" x2="727.51" y2="515.96" class="edge" marker-end="url(#arrow)"/>
<line x1="727.51" y1="515.96" x2="648.80" y2="513.86" class="edge" marker-end="url(#arrow)"/>
<line x1="648.80" y1="513.86" x2="637.55" y2="436.55" class="edge" marker-end="url(#arrow)"/>
<line x1="637.55" y1="436.55" x2="656.53" y2="430.22" class="edge" marker-end="url(#arrow)"/>
<line x1="656.53" y1="430.22" x2="664.26" y2="376.10" class="edge" marker-end="url(#arrow)"/>
<line x1="664.26" y1="376.10" x2="694.48" y2="373.29" class="edge" marker-end="url(#arrow)"/>
<line x1="694.48" y1="373.29" x2="683.94" y2="290.36" class="edge" marker-end="url(#arrow)"/>
<line x1="683.94" y1="290.36" x2="641.77" y2="277.01" class="edge" marker-end="url(#arrow)"/>
<line x1="641.77" y1="277.01" x2="638.25" y2="220.08" class="edge" marker-end="url(#arrow)"/>
<line x1="638.25" y1="220.08" x2="624.90" y2="173.69" class="edge" marker-end="url(#arrow)"/>
<line x1="624.90" y1="173.69" x2="607.33" y2="149.80" class="edge" marker-end="url(#arrow)"/>
<line x1="607.33" y1="149.80" x2="705.72" y2="185.64" class="edge" marker-end="url(#arrow)"/>
<line x1="705.72" y1="185.64" x2="722.59" y2="59.84" class="edge" marker-end="url(#arrow)"/>
<line x1="722.59" y1="59.84" x2="673.39" y2="64.76" class="edge" marker-end="url(#arrow)"/>
<line x1="673.39" y1="64.76" x2="591.16" y2="102.71" class="edge" marker-end="url(#arrow)"/>
<line x1="591.16" y1="102.71" x2="525.10" y2="50.00" class="edge" marker-end="url(#arrow)"/>
<line x1="525.10" y1="50.00" x2="417.57" y2="64.76" class="edge" marker-end="url(#arrow)"/>
<line x1="417.57" y1="64.76" x2="213.76" y2="113.25" class="edge" marker-end="url(#arrow)"/>
<line x1="213.76" y1="113.25" x2="215.86" y2="131.53" class="edge" marker-end="url(#arrow)"/>
<line x1="215.86" y1="131.53" x2="247.49" y2="86.55" class="edge" marker-end="url(#arrow)"/>
<line x1="247.49" y1="86.55" x2="364.86" y2="111.14" class="edge" marker-end="url(#arrow)"/>
<line x1="364.86" y1="111.14" x2="381.02" y2="110.44" class="edge" marker-end="url(#arrow)"/>
<line x1="381.02" y1="110.44" x2="394.38" y2="124.50" class="edge" marker-end="url(#arrow)"/>
<line x1="394.38" y1="124.50" x2="393.67" y2="150.50" class="edge" marker-end="url(#arrow)"/>
<line x1="393.67" y1="150.50" x2="401.41" y2="175.10" class="edge" marker-end="url(#arrow)"/>
<line x1="401.41" y1="175.10" x2="437.95" y2="177.21" class="edge" marker-end="url(#arrow)"/>
<line x1="437.95" y1="177.21" x2="459.74" y2="160.34" class="edge" marker-end="url(#arrow)"/>
<line x1="459.74" y1="160.34" x2="498.39" y2="178.61" class="edge" marker-end="url(#arrow)"/>
<line x1="498.39" y1="178.61" x2="569.38" y2="217.27" class="edge" marker-end="url(#arrow)"/>
<line x1="569.38" y1="217.27" x2="541.27" y2="270.68" class="edge" marker-end="url(#arrow)"/>
<line x1="541.27" y1="270.68" x2="558.13" y2="315.66" class="edge" marker-end="url(#arrow)"/>
<line x1="558.13" y1="315.66" x2="589.76" y2="330.42" class="edge" marker-end="url(#arrow)"/>
<line x1="589.76" y1="330.42" x2="630.52" y2="350.80" class="edge" marker-end="url(#arrow)"/>
<line x1="630.52" y1="350.80" x2="477.31" y2="434.44" class="edge" marker-end="url(#arrow)"/>
<line x1="477.31" y1="434.44" x2="461.85" y2="437.25" class="edge" marker-end="url(#arrow)"/>
<line x1="461.85" y1="437.25" x2="503.31" y2="478.01" class="edge" marker-end="url(#arrow)"/>
<line x1="503.31" y1="478.01" x2="552.51" y2="444.28" class="edge" marker-end="url(#arrow)"/>
<line x1="552.51" y1="444.28" x2="504.72" y2="348.69" class="edge" marker-end="url(#arrow)"/>
<line x1="504.72" y1="348.69" x2="457.63" y2="331.12" class="edge" marker-end="url(#arrow)"/>
<line x1="457.63" y1="331.12" x2="480.82" y2="321.29" class="edge" marker-end="url(#arrow)"/>
<line x1="480.82" y1="321.29" x2="310.74" y2="225.70" class="edge" marker-end="url(#arrow)"/>
<line x1="310.74" y1="225.70" x2="277.71" y2="225.70" class="edge" marker-end="url(#arrow)"/>
<line x1="277.71" y1="225.70" x2="255.22" y2="183.53" class="edge" marker-end="url(#arrow)"/>
<line x1="255.22" y1="183.53" x2="218.67" y2="210.94" class="edge" marker-end="url(#arrow)"/>
<line x1="218.67" y1="210.94" x2="232.03" y2="240.46" class="edge" marker-end="url(#arrow)"/>
<line x1="232.03" y1="240.46" x2="242.57" y2="241.16" class="edge" marker-end="url(#arrow)"/>
<line x1="242.57" y1="241.16" x2="274.20" y2="258.73" class="edge" marker-end="url(#arrow)"/>
<line x1="274.20" y1="258.73" x2="159.64" y2="281.93" class="edge" marker-end="url(#arrow)"/>
<line x1="159.64" y1="281.93" x2="154.02" y2="277.71" class="edge" marker-end="url(#arrow)"/>
<line x1="154.02" y1="277.71" x2="90.76" y2="180.72" class="edge" marker-end="url(#arrow)"/>
<line x1="90.76" y1="180.72" x2="113.25" y2="172.29" class="edge" marker-end="url(#arrow)"/>
<line x1="113.25" y1="172.29" x2="117.47" y2="151.20" class="edge" marker-end="url(#arrow)"/>
<line x1="117.47" y1="151.20" x2="118.88" y2="98.49" class="edge" marker-end="url(#arrow)"/>
<line x1="118.88" y1="98.49" x2="50.00" y2="138.55" class="edge" marker-end="url(#arrow)"/>
<line x1="50.00" y1="138.55" x2="61.95" y2="171.59" class="edge" marker-end="url(#arrow)"/>
<line x1="61.95" y1="171.59" x2="90.76" y2="300.90" class="edge" marker-end="url(#arrow)"/>
<line x1="90.76" y1="300.90" x2="92.87" y2="312.15" class="edge" marker-end="url(#arrow)"/>
<line x1="92.87" y1="312.15" x2="93.57" y2="344.48" class="edge" marker-end="url(#arrow)"/>
<line x1="93.57" y1="344.48" x2="141.37" y2="378.21" class="edge" marker-end="url(#arrow)"/>
<line x1="141.37" y1="378.21" x2="181.43" y2="353.61" class="edge" marker-end="url(#arrow)"/>
<line x1="181.43" y1="353.61" x2="238.35" y2="428.82" class="edge" marker-end="url(#arrow)"/>
<line x1="238.35" y1="428.82" x2="274.20" y2="429.52" class="edge" marker-end="url(#arrow)"/>
<line x1="274.20" y1="429.52" x2="397.89" y2="400.00" class="edge" marker-end="url(#arrow)"/>
<line x1="397.89" y1="400.00" x2="397.89" y2="400.00" class="edge" marker-end="url(#arrow)"/>
<defs>
<marker id="arrow" markerWidth="10" markerHeight="10" refX="9" refY="3" orient="auto" markerUnits="strokeWidth">
<path d="M0,0 L0,6 L9,3 z" fill="#34495e"/>
</marker>
</defs>
<circle cx="397.89" cy="400.00" r="8" class="depot"/>
<text x="397.89" y="389.00" class="label" text-anchor="middle">0</text>
<circle cx="552.51" cy="724.00" r="8" class="delivery"/>
<text x="552.51" y="713.00" class="label" text-anchor="middle">1</text>
<circle cx="354.32" cy="583.43" r="8" class="delivery"/>
<text x="354.32" y="572.43" class="label" text-anchor="middle">2</text>
<circle cx="607.33" cy="149.80" r="8" class="pickup"/>
<text x="607.33" y="138.80" class="label" text-anchor="middle">3</text>
<circle cx="247.49" cy="494.18" r="8" class="delivery"/>
<text x="247.49" y="483.18" class="label" text-anchor="middle">4</text>
<circle cx="477.31" cy="434.44" r="8" class="node"/>
<text x="477.31" y="423.44" class="label" text-anchor="middle">5</text>
<circle cx="117.47" cy="151.20" r="8" class="delivery"/>
<text x="117.47" y="140.20" class="label" text-anchor="middle">6</text>
<circle cx="244.68" cy="650.90" r="8" class="delivery"/>
<text x="244.68" y="639.90" class="label" text-anchor="middle">7</text>
<circle cx="694.48" cy="373.29" r="8" class="pickup"/>
<text x="694.48" y="362.29" class="label" text-anchor="middle">8</text>
<circle cx="247.49" cy="86.55" r="8" class="node"/>
<text x="247.49" y="75.55" class="label" text-anchor="middle">9</text>
<circle cx="525.10" cy="50.00" r="8" class="pickup"/>
<text x="525.10" y="39.00" class="label" text-anchor="middle">10</text>
<circle cx="673.39" cy="64.76" r="8" class="delivery"/>
<text x="673.39" y="53.76" class="label" text-anchor="middle">11</text>
<circle cx="683.94" cy="290.36" r="8" class="delivery"/>
<text x="683.94" y="279.36" class="label" text-anchor="middle">12</text>
<circle cx="274.20" cy="429.52" r="8" class="pickup"/>
<text x="274.20" y="418.52" class="label" text-anchor="middle">13</text>
<circle cx="215.86" cy="131.53" r="8" class="pickup"/>
<text x="215.86" y="120.53" class="label" text-anchor="middle">14</text>
<circle cx="242.57" cy="241.16" r="8" class="pickup"/>
<text x="242.57" y="230.16" class="label" text-anchor="middle">15</text>
<circle cx="461.85" cy="437.25" r="8" class="delivery"/>
<text x="461.85" y="426.25" class="label" text-anchor="middle">16</text>
<circle cx="459.74" cy="160.34" r="8" class="pickup"/>
<text x="459.74" y="149.34" class="label" text-anchor="middle">17</text>
<circle cx="213.76" cy="113.25" r="8" class="node"/>
<text x="213.76" y="102.25" class="label" text-anchor="middle">18</text>
<circle cx="480.82" cy="321.29" r="8" class="node"/>
<text x="480.82" y="310.29" class="label" text-anchor="middle">19</text>
<circle cx="656.53" cy="430.22" r="8" class="pickup"/>
<text x="656.53" y="419.22" class="label" text-anchor="middle">20</text>
<circle cx="664.26" cy="376.10" r="8" class="pickup"/>
<text x="664.26" y="365.10" class="label" text-anchor="middle">21</text>
<circle cx="670.58" cy="593.98" r="8" class="pickup"/>
<text x="670.58" y="582.98" class="label" text-anchor="middle">22</text>
<circle cx="457.63" cy="331.12" r="8" class="delivery"/>
<text x="457.63" y="320.12" class="label" text-anchor="middle">23</text>
<circle cx="125.20" cy="601.71" r="8" class="delivery"/>
<text x="125.20" y="590.71" class="label" text-anchor="middle">24</text>
<circle cx="93.57" cy="344.48" r="8" class="pickup"/>
<text x="93.57" y="333.48" class="label" text-anchor="middle">25</text>
<circle cx="331.12" cy="308.63" r="8" class="delivery"/>
<text x="331.12" y="297.63" class="label" text-anchor="middle">26</text>
<circle cx="402.11" cy="554.62" r="8" class="pickup"/>
<text x="402.11" y="543.62" class="label" text-anchor="middle">27</text>
<circle cx="503.31" cy="478.01" r="8" class="pickup"/>
<text x="503.31" y="467.01" class="label" text-anchor="middle">28</text>
<circle cx="170.88" cy="519.48" r="8" class="node"/>
<text x="170.88" y="508.48" class="label" text-anchor="middle">29</text>
<circle cx="232.73" cy="518.07" r="8" class="pickup"/>
<text x="232.73" y="507.07" class="label" text-anchor="middle">30</text>
<circle cx="142.77" cy="670.58" r="8" class="pickup"/>
<text x="142.77" y="659.58" class="label" text-anchor="middle">31</text>
<circle cx="118.88" cy="98.49" r="8" class="pickup"/>
<text x="118.88" y="87.49" class="label" text-anchor="middle">32</text>
<circle cx="331.12" cy="292.47" r="8" class="delivery"/>
<text x="331.12" y="281.47" class="label" text-anchor="middle">33</text>
<circle cx="648.80" cy="513.86" r="8" class="pickup"/>
<text x="648.80" y="502.86" class="label" text-anchor="middle">34</text>
<circle cx="589.76" cy="330.42" r="8" class="pickup"/>
<text x="589.76" y="319.42" class="label" text-anchor="middle">35</text>
<circle cx="196.89" cy="682.53" r="8" class="delivery"/>
<text x="196.89" y="671.53" class="label" text-anchor="middle">36</text>
<circle cx="541.27" cy="270.68" r="8" class="delivery"/>
<text x="541.27" y="259.68" class="label" text-anchor="middle">37</text>
<circle cx="709.24" cy="567.97" r="8" class="delivery"/>
<text x="709.24" y="556.97" class="label" text-anchor="middle">38</text>
<circle cx="310.74" cy="225.70" r="8" class="node"/>
<text x="310.74" y="214.70" class="label" text-anchor="middle">39</text>
<circle cx="50.00" cy="138.55" r="8" class="delivery"/>
<text x="50.00" y="127.55" class="label" text-anchor="middle">40</text>
<circle cx="154.02" cy="277.71" r="8" class="pickup"/>
<text x="154.02" y="266.71" class="label" text-anchor="middle">41</text>
<circle cx="401.41" cy="175.10" r="8" class="delivery"/>
<text x="401.41" y="164.10" class="label" text-anchor="middle">42</text>
<circle cx="177.91" cy="582.73" r="8" class="delivery"/>
<text x="177.91" y="571.73" class="label" text-anchor="middle">43</text>
<circle cx="705.72" cy="185.64" r="8" class="pickup"/>
<text x="705.72" y="174.64" class="label" text-anchor="middle">44</text>
<circle cx="282.63" cy="734.54" r="8" class="delivery"/>
<text x="282.63" y="723.54" class="label" text-anchor="middle">45</text>
<circle cx="323.39" cy="376.10" r="8" class="pickup"/>
<text x="323.39" y="365.10" class="label" text-anchor="middle">46</text>
<circle cx="450.60" cy="736.65" r="8" class="pickup"/>
<text x="450.60" y="725.65" class="label" text-anchor="middle">47</text>
<circle cx="722.59" cy="59.84" r="8" class="delivery"/>
<text x="722.59" y="48.84" class="label" text-anchor="middle">48</text>
<circle cx="92.87" cy="312.15" r="8" class="delivery"/>
<text x="92.87" y="301.15" class="label" text-anchor="middle">49</text>
<circle cx="630.52" cy="350.80" r="8" class="delivery"/>
<text x="630.52" y="339.80" class="label" text-anchor="middle">50</text>
<circle cx="213.05" cy="633.33" r="8" class="pickup"/>
<text x="213.05" y="622.33" class="label" text-anchor="middle">51</text>
<circle cx="494.18" cy="575.70" r="8" class="delivery"/>
<text x="494.18" y="564.70" class="label" text-anchor="middle">52</text>
<circle cx="558.13" cy="315.66" r="8" class="delivery"/>
<text x="558.13" y="304.66" class="label" text-anchor="middle">53</text>
<circle cx="274.20" cy="258.73" r="8" class="pickup"/>
<text x="274.20" y="247.73" class="label" text-anchor="middle">54</text>
<circle cx="591.16" cy="102.71" r="8" class="pickup"/>
<text x="591.16" y="91.71" class="label" text-anchor="middle">55</text>
<circle cx="90.76" cy="180.72" r="8" class="pickup"/>
<text x="90.76" y="169.72" class="label" text-anchor="middle">56</text>
<circle cx="181.43" cy="353.61" r="8" class="node"/>
<text x="181.43" y="342.61" class="label" text-anchor="middle">57</text>
<circle cx="572.19" cy="667.07" r="8" class="pickup"/>
<text x="572.19" y="656.07" class="label" text-anchor="middle">58</text>
<circle cx="482.93" cy="715.56" r="8" class="pickup"/>
<text x="482.93" y="704.56" class="label" text-anchor="middle">59</text>
<circle cx="727.51" cy="515.96" r="8" class="delivery"/>
<text x="727.51" y="504.96" class="label" text-anchor="middle">60</text>
<circle cx="452.71" cy="382.43" r="8" class="delivery"/>
<text x="452.71" y="371.43" class="label" text-anchor="middle">61</text>
<circle cx="420.38" cy="718.37" r="8" class="pickup"/>
<text x="420.38" y="707.37" class="label" text-anchor="middle">62</text>
<circle cx="238.35" cy="428.82" r="8" class="pickup"/>
<text x="238.35" y="417.82" class="label" text-anchor="middle">63</text>
<circle cx="141.37" cy="378.21" r="8" class="pickup"/>
<text x="141.37" y="367.21" class="label" text-anchor="middle">64</text>
<circle cx="352.91" cy="342.37" r="8" class="delivery"/>
<text x="352.91" y="331.37" class="label" text-anchor="middle">65</text>
<circle cx="159.64" cy="281.93" r="8" class="delivery"/>
<text x="159.64" y="270.93" class="label" text-anchor="middle">66</text>
<circle cx="498.39" cy="178.61" r="8" class="delivery"/>
<text x="498.39" y="167.61" class="label" text-anchor="middle">67</text>
<circle cx="417.57" cy="64.76" r="8" class="delivery"/>
<text x="417.57" y="53.76" class="label" text-anchor="middle">68</text>
<circle cx="113.25" cy="172.29" r="8" class="delivery"/>
<text x="113.25" y="161.29" class="label" text-anchor="middle">69</text>
<circle cx="218.67" cy="210.94" r="8" class="node"/>
<text x="218.67" y="199.94" class="label" text-anchor="middle">70</text>
<circle cx="61.95" cy="171.59" r="8" class="pickup"/>
<text x="61.95" y="160.59" class="label" text-anchor="middle">71</text>
<circle cx="255.22" cy="183.53" r="8" class="pickup"/>
<text x="255.22" y="172.53" class="label" text-anchor="middle">72</text>
<circle cx="232.03" cy="240.46" r="8" class="pickup"/>
<text x="232.03" y="229.46" class="label" text-anchor="middle">73</text>
<circle cx="90.76" cy="300.90" r="8" class="pickup"/>
<text x="90.76" y="289.90" class="label" text-anchor="middle">74</text>
<circle cx="103.41" cy="717.67" r="8" class="delivery"/>
<text x="103.41" y="706.67" class="label" text-anchor="middle">75</text>
<circle cx="277.71" cy="225.70" r="8" class="pickup"/>
<text x="277.71" y="214.70" class="label" text-anchor="middle">76</text>
<circle cx="175.80" cy="671.29" r="8" class="pickup"/>
<text x="175.80" y="660.29" class="label" text-anchor="middle">77</text>
<circle cx="569.38" cy="217.27" r="8" class="delivery"/>
<text x="569.38" y="206.27" class="label" text-anchor="middle">78</text>
<circle cx="394.38" cy="124.50" r="8" class="pickup"/>
<text x="394.38" y="113.50" class="label" text-anchor="middle">79</text>
<circle cx="140.66" cy="496.99" r="8" class="delivery"/>
<text x="140.66" y="485.99" class="label" text-anchor="middle">80</text>
<circle cx="504.72" cy="348.69" r="8" class="pickup"/>
<text x="504.72" y="337.69" class="label" text-anchor="middle">81</text>
<circle cx="377.51" cy="572.19" r="8" class="delivery"/>
<text x="377.51" y="561.19" class="label" text-anchor="middle">82</text>
<circle cx="731.73" cy="737.35" r="8" class="delivery"/>
<text x="731.73" y="726.35" class="label" text-anchor="middle">83</text>
<circle cx="624.90" cy="173.69" r="8" class="pickup"/>
<text x="624.90" y="162.69" class="label" text-anchor="middle">84</text>
<circle cx="364.86" cy="111.14" r="8" class="delivery"/>
<text x="364.86" y="100.14" class="label" text-anchor="middle">85</text>
<circle cx="156.83" cy="576.41" r="8" class="pickup"/>
<text x="156.83" y="565.41" class="label" text-anchor="middle">86</text>
<circle cx="381.02" cy="110.44" r="8" class="delivery"/>
<text x="381.02" y="99.44" class="label" text-anchor="middle">87</text>
<circle cx="552.51" cy="444.28" r="8" class="delivery"/>
<text x="552.51" y="433.28" class="label" text-anchor="middle">88</text>
<circle cx="226.41" cy="478.01" r="8" class="pickup"/>
<text x="226.41" y="467.01" class="label" text-anchor="middle">89</text>
<circle cx="637.55" cy="436.55" r="8" class="pickup"/>
<text x="637.55" y="425.55" class="label" text-anchor="middle">90</text>
<circle cx="393.67" cy="150.50" r="8" class="node"/>
<text x="393.67" y="139.50" class="label" text-anchor="middle">91</text>
<circle cx="638.25" cy="220.08" r="8" class="pickup"/>
<text x="638.25" y="209.08" class="label" text-anchor="middle">92</text>
<circle cx="164.56" cy="607.33" r="8" class="pickup"/>
<text x="164.56" y="596.33" class="label" text-anchor="middle">93</text>
<circle cx="437.95" cy="177.21" r="8" class="delivery"/>
<text x="437.95" y="166.21" class="label" text-anchor="middle">94</text>
<circle cx="698.69" cy="750.00" r="8" class="delivery"/>
<text x="698.69" y="739.00" class="label" text-anchor="middle">95</text>
<circle cx="434.44" cy="600.30" r="8" class="pickup"/>
<text x="434.44" y="589.30" class="label" text-anchor="middle">96</text>
<circle cx="243.27" cy="692.37" r="8" class="delivery"/>
<text x="243.27" y="681.37" class="label" text-anchor="middle">97</text>
<circle cx="641.77" cy="277.01" r="8" class="pickup"/>
<text x="641.77" y="266.01" class="label" text-anchor="middle">98</text>
<circle cx="608.73" cy="740.86" r="8" class="pickup"/>
<text x="608.73" y="729.86" class="label" text-anchor="middle">99</text>

<rect x="50" y="770" width="15" height="15" class="depot"/>
<text x="70" y="782" class="label">Depot</text>
<rect x="130" y="770" width="15" height="15" class="pickup"/>
<text x="150" y="782" class="label">Pickup</text>
<rect x="210" y="770" width="15" height="15" class="delivery"/>
<text x="230" y="782" class="label">Delivery</text>
</svg>